{"title":"Mad Max Fury Road (2015) &amp; BluRay Xtras 1080p","uid":12240381,"size":6497452177,"categoryP":"video","categoryS":"hd___movies","magnet":"?xt=urn:btih:8197643e932d3bea6928d3c85cde563bbb6355ea&amp;dn=Mad+Max+Fury+Road+%282015%29+%26amp%3B+BluRay+Xtras+1080p&amp;tr=udp%3A%2F%2Ftracker.openbittorrent.com%3A80&amp;tr=udp%3A%2F%2Fopen.demonii.com%3A1337&amp;tr=udp%3A%2F%2Ftracker.coppersurfer.tk%3A6969&amp;tr=udp%3A%2F%2Fexodus.desync.com%3A6969","seeders":1,"leechers":0,"uploader":"AlienMethod","files":20,"time":1439769637,"description":"x264/mp4\n6-Channel AC3@384kbps (audio 1)\n2-Channel AAC@192kbps (audio 2)\nEnglish Subs\nBluRay Xtras Incl.\n\n&quot;In a stark desert landscape where humanity is broken, two rebels just\nmight be able to restore order: Max, a man of action and of few words, and \nFuriosa, a woman of action who is looking to make it back to her childhood homeland.&quot;\n\n\n\nGeneral\nComplete name /Mad Max Fury Road (2015) &amp; BluRay Xtras 1080p\nMad Max Fury Road (2015) 1080p.mp4\nFormat : MPEG-4\nFormat profile : Base Media\nCodec ID : isom\nFile size : 3.94 GiB\nDuration : 2h 0mn\nOverall bit rate mode : Variable\nOverall bit rate : 4 680 Kbps\nEncoded date : UTC 2015-08-16 14:38:52\nTagged date : UTC 2015-08-16 14:38:52\nWriting application : My MP4Box GUI 0.6.0.6 \n\nVideo\nID : 1\nFormat : AVC\nFormat/Info : Advanced Video Codec\nFormat profile : &lt;a class=&quot;__cf_email__&quot; href=&quot;/cdn-cgi/l/email-protection&quot; data-cfemail=&quot;bef6d7d9d6fef28a908e&quot;&gt;[email&amp;#160;protected]&lt;/a&gt;&lt;script data-cfhash='f9e31' type=&quot;text/javascript&quot;&gt;\n/* &lt;![CDATA[ */!function(){try{var t=&quot;currentScript&quot;in document?document.currentScript:function(){for(var t=document.getElementsByTagName(&quot;script&quot;),e=t.length;e--;)if(t[e].getAttribute(&quot;data-cfhash&quot;))return t[e]}();if(t&amp;&amp;t.previousSibling){var e,r,n,i,c=t.previousSibling,a=c.getAttribute(&quot;data-cfemail&quot;);if(a){for(e=&quot;&quot;,r=parseInt(a.substr(0,2),16),n=2;a.length-n;n+=2)i=parseInt(a.substr(n,2),16)^r,e+=String.fromCharCode(i);e=document.createTextNode(e),c.parentNode.replaceChild(e,c)}t.parentNode.removeChild(t);}}catch(u){}}()/* ]]&gt; */&lt;/script&gt;\nFormat settings, CABAC : Yes\nFormat settings, ReFrames : 4 frames\nCodec ID : avc1\nCodec ID/Info : Advanced Video Coding\nDuration : 2h 0mn\nBit rate : 4 065 Kbps\nMaximum bit rate : 32.1 Mbps\nWidth : 1 904 pixels\nHeight : 800 pixels\nDisplay aspect ratio : 2.40:1\nFrame rate mode : Constant\nFrame rate : 23.976 fps\nColor space : YUV\nChroma subsampling : 4:2:0\nBit depth : 8 bits\nScan type : Progressive\nBits/(Pixel*Frame) : 0.111\nStream size : 3.42 GiB (87%)\nTitle : Mad Max (Encode).h264\nWriting library : x264 core 142 r2479 dd79a61\nEncoded date : UTC 2015-08-16 14:38:52\nTagged date : UTC 2015-08-16 14:39:19\n\nAudio #1\nID : 2\nFormat : AC-3\nFormat/Info : Audio Coding 3\nMode extension : CM (complete main)\nFormat settings, Endianness : Big\nCodec ID : ac-3\nDuration : 2h 0mn\nBit rate mode : Constant\nBit rate : 384 Kbps\nChannel(s) : 6 channels\nChannel positions : Front: L C R, Side: L R, LFE\nSampling rate : 48.0 KHz\nBit depth : 16 bits\nCompression mode : Lossy\nStream size : 331 MiB (8%)\nTitle : Mad Max AC3.ac3\nEncoded date : UTC 2015-08-16 14:39:12\nTagged date : UTC 2015-08-16 14:39:19\n\nAudio #2\nID : 3\nFormat : AAC\nFormat/Info : Advanced Audio Codec\nFormat profile : LC\nCodec ID : 40\nDuration : 2h 0mn\nBit rate mode : Variable\nBit rate : 229 Kbps\nMaximum bit rate : 270 Kbps\nChannel(s) : 2 channels\nChannel positions : Front: L R\nSampling rate : 48.0 KHz\nCompression mode : Lossy\nStream size : 197 MiB (5%)\nTitle : Mad Max AAC.m4a\nEncoded date : UTC 2015-08-16 14:39:14\nTagged date : UTC 2015-08-16 14:39:19","torrent":{"xt":"urn:btih:8197643e932d3bea6928d3c85cde563bbb6355ea","amp;dn":"Mad+Max+Fury+Road+%282015%29+%26amp%3B+BluRay+Xtras+1080p","amp;tr":["udp%3A%2F%2Ftracker.openbittorrent.com%3A80","udp%3A%2F%2Fopen.demonii.com%3A1337","udp%3A%2F%2Ftracker.coppersurfer.tk%3A6969","udp%3A%2F%2Fexodus.desync.com%3A6969"],"infoHash":"8197643e932d3bea6928d3c85cde563bbb6355ea","infoHashBuffer":{"type":"Buffer","data":[129,151,100,62,147,45,59,234,105,40,211,200,92,222,86,59,187,99,85,234]},"announce":[],"urlList":[]}}